<svg xmlns="http://www.w3.org/2000/svg" fill="none" viewBox="0 0 70 77">
  <path d="M37.325 50.937L55.87 34.723l.456-.397c1.875-1.63 2.191-4.62.707-6.678a4.564 4.564 0 00-.7-.77L37.326 10.277c-1.577-1.377-3.812-1.377-5.389 0L12.913 26.89c-1.87 1.634-2.181 4.625-.693 6.68.203.28.435.535.69.759l.451.394L31.935 50.94c1.578 1.377 3.813 1.377 5.39-.002z" fill="#FF6258"/>
  <path opacity=".5" fill-rule="evenodd" clip-rule="evenodd" d="M31.908 59.171L15.399 44.758c-1.126-.983-2.766-.778-3.661.46l-.021.028c-.887 1.258-.678 3.068.468 4.042l.012.01 19.8 16.631c1.552 1.304 3.707 1.304 5.26 0l19.792-16.617c1.159-.973 1.38-2.793.494-4.066a1.237 1.237 0 00-.012-.016c-.89-1.26-2.54-1.488-3.687-.511l-.025.021-16.523 14.43c-1.577 1.378-3.81 1.378-5.388.001z" fill="#FF623F"/>
</svg>
