<svg xmlns="http://www.w3.org/2000/svg" fill="none" viewBox="0 0 48 47">
  <path d="M8.335 13.647v16.376c0 4.522 3.731 8.188 8.334 8.188h16.67v2.233c0 3.86-2.133 5.955-6.062 5.955H6.06C2.132 46.4 0 44.305 0 40.444V19.602c0-3.86 2.132-5.955 6.061-5.955h2.274z" fill="#7FBA5B"/>
  <path opacity=".5" fill-rule="evenodd" clip-rule="evenodd" d="M19.953 0h21.215c3.929 0 6.061 2.095 6.061 5.955v20.843c0 3.86-2.132 5.955-6.061 5.955H19.953c-3.93 0-6.062-2.095-6.062-5.955V5.955c0-3.86 2.132-5.955 6.062-5.955z" fill="#29EA53"/>
</svg>
