<svg xmlns="http://www.w3.org/2000/svg" fill="none" viewBox="0 0 28 27">
  <path d="M28 11.498C28 5.158 21.72 0 14 0S0 5.158 0 11.498c0 5.684 4.98 10.444 11.708 11.344.456.1 1.077.304 1.234.698.141.359.092.92.045 1.282 0 0-.164 1-.2 1.212-.06.359-.28 1.401 1.213.764 1.494-.637 8.063-4.804 11-8.226 2.029-2.252 3-4.537 3-7.074z" fill="#2CCF54"/>
  <path d="M11.155 8.424h-.982A.274.274 0 009.9 8.7v6.167c0 .152.123.275.273.275h.982a.274.274 0 00.273-.275V8.699a.274.274 0 00-.273-.275zm6.76 0h-.982a.274.274 0 00-.273.275v3.664l-2.796-3.816a.282.282 0 00-.227-.123h-.981a.274.274 0 00-.273.275v6.167c0 .152.122.275.273.275h.981a.274.274 0 00.273-.275v-3.662l2.8 3.82c.05.073.135.117.223.117h.982c.15 0 .272-.123.272-.275V8.699a.274.274 0 00-.272-.275zm-9.127 5.173H6.12V8.7a.274.274 0 00-.272-.276h-.983a.274.274 0 00-.272.276v6.165c0 .15.121.276.272.276h3.923c.15 0 .272-.123.272-.276v-.992a.274.274 0 00-.272-.276zm14.55-3.629c.15 0 .272-.123.272-.275V8.7a.274.274 0 00-.272-.276h-3.923a.276.276 0 00-.273.276v6.166c0 .149.122.275.272.275h3.924c.15 0 .272-.123.272-.275v-.993a.274.274 0 00-.272-.276H20.67v-1.042h2.668c.15 0 .272-.124.272-.276v-.993a.274.274 0 00-.272-.275H20.67V9.968h2.668z" fill="#fff"/>
</svg>
