<svg xmlns="http://www.w3.org/2000/svg" fill="none" viewBox="0 0 32 32">
  <circle cx="16" cy="16" r="14" fill="#FFFA37"/>
  <path fill-rule="evenodd" clip-rule="evenodd" d="M21.026 8.186C20.06 6.969 18.466 6 16.012 6c-2.103.02-6.308 1.184-6.308 5.674 0 .655.052 1.534.097 2.18a1.589 1.589 0 01-.223-.094l-.015-.007a1.863 1.863 0 00-.853-.223c-.394 0-.774.154-1.056.382-.28.227-.52.576-.52.998 0 .528.296.879.644 1.104.308.2.697.327 1.005.428l.03.01c.33.108.572.19.739.294.13.08.149.132.151.18a1.753 1.753 0 01-.105.248 5.967 5.967 0 01-.36.597c-.303.445-.67.902-.946 1.167a6.09 6.09 0 01-1.182.843 4.62 4.62 0 01-.658.307 1.464 1.464 0 01-.456.104.696.696 0 00-.168.022 1.326 1.326 0 00-.393.178c-.181.123-.435.37-.435.758 0 .203.048.375.13.524.072.13.165.23.218.287l.008.008.015.016c.293.316.78.535 1.25.686.406.13.859.226 1.3.284l.02.093.002.01c.028.132.065.305.12.465.05.151.143.375.333.534.241.202.557.223.763.222.221 0 .48-.032.725-.062l.02-.002a8.944 8.944 0 011.08-.085c.682 0 1.12.285 1.805.754l.005.003c.238.162.504.344.806.523 1.012.598 1.835.593 2.3.59a13.491 13.491 0 01.176 0c.467.003 1.311.008 2.324-.59.302-.18.568-.36.806-.523l.005-.003c.686-.469 1.123-.754 1.805-.754a8.9 8.9 0 011.08.085l.02.002c.245.03.503.061.725.062.206 0 .522-.02.763-.222.19-.16.283-.383.334-.534.054-.16.09-.333.119-.464l.002-.011.02-.093a7.607 7.607 0 001.3-.284c.47-.15.957-.37 1.25-.686l.015-.016.008-.008c.053-.057.146-.156.218-.287.082-.149.13-.32.13-.524 0-.389-.254-.635-.436-.758a1.327 1.327 0 00-.392-.178.696.696 0 00-.168-.022c-.095 0-.247-.029-.456-.104a4.664 4.664 0 01-.658-.307 6.091 6.091 0 01-1.182-.843c-.275-.265-.643-.722-.945-1.167a5.955 5.955 0 01-.362-.597 1.762 1.762 0 01-.104-.248c.002-.048.022-.1.151-.18.167-.104.409-.186.738-.295l.03-.01c.309-.1.698-.228 1.006-.427.348-.225.645-.576.645-1.103 0-.422-.24-.772-.52-.999a1.711 1.711 0 00-1.057-.382c-.39 0-.67.134-.853.223l-.015.007c-.104.05-.17.079-.223.094.045-.646.097-1.525.097-2.18 0-.89-.323-2.295-1.27-3.488zm-9.243.587c-.8 1.002-1.075 2.193-1.075 2.9 0 .657.055 1.568.102 2.222a.865.865 0 01-.218.67c-.192.204-.453.27-.686.27-.337 0-.593-.123-.757-.202l-.019-.009c-.183-.088-.279-.128-.42-.128a.687.687 0 00-.41.155c-.126.103-.163.202-.163.26 0 .116.043.2.2.301.187.12.453.211.8.325l.031.01c.29.095.647.212.93.388.317.198.61.516.61 1.005 0 .128-.036.252-.07.345a2.663 2.663 0 01-.139.316c-.11.214-.258.456-.42.697-.324.477-.735.994-1.077 1.323-.345.332-.865.705-1.39.997a5.615 5.615 0 01-.808.374 2.568 2.568 0 01-.742.164.392.392 0 00-.051.028l-.005.003a.14.14 0 00.003.015.075.075 0 00.008.019c.01.017.024.037.086.103l.016.017c.111.12.385.275.82.414.412.132.901.227 1.363.271a.586.586 0 01.42.244.82.82 0 01.111.22c.038.11.066.243.088.349l.004.016c.03.143.057.267.092.37a.753.753 0 00.033.083.877.877 0 00.105.005c.212 0 .425-.032.635-.058.337-.04.753-.09 1.194-.09 1.023 0 1.698.46 2.35.906l.037.025c.24.165.483.33.755.49.766.453 1.349.45 1.775.448h.174c.43.002 1.034.005 1.8-.447.271-.161.513-.326.754-.49l.037-.026c.652-.445 1.327-.906 2.35-.906.44 0 .857.05 1.194.09l.01.002c.272.032.471.056.625.056a.876.876 0 00.105-.005.764.764 0 00.033-.084c.035-.102.062-.226.092-.37l.004-.015c.022-.106.05-.24.088-.348a.846.846 0 01.11-.22.586.586 0 01.421-.245c.462-.044.95-.14 1.364-.271.434-.139.708-.294.819-.414l.016-.017a.599.599 0 00.087-.103.075.075 0 00.007-.019.13.13 0 00.003-.015l-.005-.003a.294.294 0 00-.051-.028 2.568 2.568 0 01-.742-.164 5.676 5.676 0 01-.808-.374c-.525-.292-1.045-.665-1.39-.997-.342-.33-.753-.846-1.076-1.323a6.893 6.893 0 01-.421-.697 2.663 2.663 0 01-.14-.316 1.051 1.051 0 01-.069-.345c0-.49.293-.807.61-1.005.283-.176.64-.293.93-.388l.03-.01c.348-.114.614-.204.8-.325.158-.102.2-.185.2-.301 0-.058-.036-.157-.162-.26a.687.687 0 00-.41-.155c-.141 0-.237.04-.42.128l-.019.01c-.164.078-.42.201-.757.201-.233 0-.494-.066-.686-.27a.865.865 0 01-.218-.67c.047-.654.102-1.565.102-2.221 0-.71-.27-1.9-1.065-2.903-.776-.978-2.075-1.805-4.215-1.805-2.141 0-3.446.827-4.229 1.807z" fill="#000"/>
  <path fill-rule="evenodd" clip-rule="evenodd" d="M11.783 8.773c-.8 1.002-1.075 2.193-1.075 2.9 0 .657.055 1.568.102 2.222a.865.865 0 01-.218.67c-.192.204-.453.27-.686.27-.337 0-.593-.123-.757-.202l-.019-.009c-.183-.088-.279-.128-.42-.128a.687.687 0 00-.41.155c-.126.103-.163.202-.163.26 0 .116.043.2.2.301.187.12.453.211.8.325l.031.01c.29.095.647.212.93.388.317.198.61.516.61 1.005 0 .128-.036.252-.07.345a2.663 2.663 0 01-.139.316c-.11.214-.258.456-.42.697-.324.477-.735.994-1.077 1.323-.345.332-.865.705-1.39.997a5.615 5.615 0 01-.808.374 2.568 2.568 0 01-.742.164.392.392 0 00-.051.028l-.005.003a.14.14 0 00.003.015.075.075 0 00.008.019c.01.017.024.037.086.103l.016.017c.111.12.385.275.82.414.412.132.901.227 1.363.271a.586.586 0 01.42.244.82.82 0 01.111.22c.038.11.066.243.088.349l.004.016c.03.143.057.267.092.37a.753.753 0 00.033.083.877.877 0 00.105.005c.212 0 .425-.032.635-.058.337-.04.753-.09 1.194-.09 1.023 0 1.698.46 2.35.906l.037.025c.24.165.483.33.755.49.766.453 1.349.45 1.775.448h.174c.43.002 1.034.005 1.8-.447.271-.161.513-.326.754-.49l.037-.026c.652-.445 1.327-.906 2.35-.906.44 0 .857.05 1.194.09l.01.002c.272.032.471.056.625.056a.876.876 0 00.105-.005.764.764 0 00.033-.084c.035-.102.062-.226.092-.37l.004-.015c.022-.106.05-.24.088-.348a.846.846 0 01.11-.22.586.586 0 01.421-.245c.462-.044.95-.14 1.364-.271.434-.139.708-.294.819-.414l.016-.017a.599.599 0 00.087-.103.075.075 0 00.007-.019.13.13 0 00.003-.015l-.005-.003a.294.294 0 00-.051-.028 2.568 2.568 0 01-.742-.164 5.676 5.676 0 01-.808-.374c-.525-.292-1.045-.665-1.39-.997-.342-.33-.753-.846-1.076-1.323a6.893 6.893 0 01-.421-.697 2.663 2.663 0 01-.14-.316 1.051 1.051 0 01-.069-.345c0-.49.293-.807.61-1.005.283-.176.64-.293.93-.388l.03-.01c.348-.114.614-.204.8-.325.158-.102.2-.185.2-.301 0-.058-.036-.157-.162-.26a.687.687 0 00-.41-.155c-.141 0-.237.04-.42.128l-.019.01c-.164.078-.42.201-.757.201-.233 0-.494-.066-.686-.27a.865.865 0 01-.218-.67c.047-.654.102-1.565.102-2.221 0-.71-.27-1.9-1.065-2.903-.776-.978-2.075-1.805-4.215-1.805-2.141 0-3.446.827-4.229 1.807z" fill="#fff"/>
</svg>
