<svg xmlns="http://www.w3.org/2000/svg" fill="none" viewBox="0 0 21 21">
  <path d="M5.546 12.989c.102-.85.45-1.325 1.107-1.812.939-.66 2.112-.287 2.112-.287V8.675c.285-.007.57.01.852.05v2.851s-1.172-.373-2.111.287c-.656.487-1.005.963-1.107 1.812-.003.461.083 1.064.481 1.585a3.886 3.886 0 01-.3-.172c-.878-.59-1.038-1.474-1.034-2.1zM14.46 4.58c-.646-.708-.89-1.423-.979-1.925h.813s-.162 1.317 1.018 2.611l.017.018c-.319-.2-.61-.437-.87-.704zm3.914 2.007V9.38s-1.037-.04-1.804-.236c-1.072-.273-1.76-.692-1.76-.692s-.476-.298-.515-.32V13.9c0 .322-.088 1.124-.356 1.793-.35.875-.89 1.449-.99 1.566 0 0-.656.777-1.815 1.3-1.045.471-1.962.46-2.237.471 0 0-1.585.063-3.012-.864a5.993 5.993 0 01-.86-.692l.007.006c1.427.927 3.012.864 3.012.864.275-.012 1.192 0 2.236-.472 1.159-.523 1.816-1.299 1.816-1.299.099-.117.642-.692.99-1.567a5.594 5.594 0 00.356-1.792V7.447c.039.02.514.32.514.32s.689.419 1.76.691c.768.196 1.805.236 1.805.236V6.505c.355.08.657.102.853.082z" fill="#EE1D52"/>
  <path d="M17.522 6.505v2.188s-1.036-.04-1.804-.235c-1.072-.273-1.76-.692-1.76-.692s-.476-.299-.514-.32v5.768c0 .322-.088 1.124-.357 1.793-.35.875-.89 1.45-.99 1.567 0 0-.656.776-1.815 1.3-1.045.47-1.962.459-2.236.47 0 0-1.586.063-3.013-.864l-.007-.005c-.15-.146-.293-.3-.425-.461a5.474 5.474 0 01-.805-1.402c-.112-.325-.35-1.107-.317-1.865.057-1.336.527-2.156.651-2.361.33-.56.758-1.062 1.266-1.482.448-.362.956-.65 1.503-.853a5.23 5.23 0 011.866-.376v2.215s-1.173-.372-2.112.287c-.656.487-1.004.963-1.107 1.812-.004.625.156 1.51 1.033 2.099.102.065.203.122.301.173.153.199.34.372.552.513.857.543 1.575.58 2.493.228.612-.235 1.072-.766 1.286-1.354.134-.367.133-.737.133-1.12V2.656h2.136c.088.502.333 1.217.979 1.925.259.267.55.504.869.704.094.097.575.578 1.192.873a4.7 4.7 0 001.002.348z" fill="#000"/>
  <path d="M2.946 14.934v.002L3 15.08c-.006-.017-.026-.068-.053-.146zM6.899 9.05a5.337 5.337 0 00-1.503.854 5.614 5.614 0 00-1.265 1.485c-.124.204-.594 1.025-.652 2.361-.032.758.205 1.54.318 1.865v.002c.071.186.35.843.805 1.4.132.161.274.315.424.461A5.839 5.839 0 013.75 16.33a5.49 5.49 0 01-.803-1.396v-.002c-.113-.326-.351-1.108-.318-1.866.057-1.336.527-2.157.652-2.362a5.607 5.607 0 011.265-1.485c.448-.362.956-.65 1.503-.853a5.32 5.32 0 012.719-.322v.631a5.23 5.23 0 00-1.868.376z" fill="#69C9D0"/>
  <path d="M13.482 2.655h-2.137V13.53c0 .382 0 .751-.132 1.12-.216.587-.675 1.118-1.287 1.353-.918.354-1.636.314-2.492-.228a2.29 2.29 0 01-.554-.512c.73.373 1.383.367 2.192.056.612-.236 1.071-.767 1.286-1.355.135-.367.133-.737.133-1.118V1.969h2.95s-.033.27.041.686zm4.04 3.245v.605a4.784 4.784 0 01-1-.348c-.618-.295-1.098-.776-1.192-.873.109.068.222.13.339.187.75.359 1.489.466 1.853.43z" fill="#69C9D0"/>
</svg>
