<svg xmlns="http://www.w3.org/2000/svg" fill="none" viewBox="0 0 37 38">
  <path d="M2.595 11.805c.149-2.35 1.988-4.191 4.278-4.308 3.316-.169 8.056-.372 11.627-.372 3.571 0 8.31.203 11.627.372 2.29.117 4.13 1.958 4.278 4.308.142 2.251.282 5.021.282 7.195 0 2.174-.14 4.944-.282 7.195-.149 2.35-1.988 4.191-4.278 4.308-3.316.169-8.056.372-11.627.372-3.571 0-8.31-.203-11.627-.372-2.29-.117-4.13-1.958-4.278-4.308-.142-2.251-.283-5.021-.283-7.195 0-2.174.14-4.944.283-7.195z" fill="#FC0D1B"/>
  <path d="M15.031 14.25v9.5l9.25-4.75-9.25-4.75z" fill="#fff"/>
</svg>
